<svg data-v-7cc9d6e2="" id="circuit-k422s6rj" height="330" width="1000" viewBox="0 0 1000 330" xmlns="http://www.w3.org/2000/svg" xmlns:svg="http://www.w3.org/2000/svg"><defs data-v-7cc9d6e2=""><style data-v-7cc9d6e2="" type="text/css">
        @font-face {
          font-family: 'IBM Plex Mono';
          src: url('https://fonts.googleapis.com/css?family=IBM+Plex+Mono');
        }
      </style><filter data-v-7cc9d6e2="" id="dropshadow" height="140%" width="140%"><feGaussianBlur data-v-7cc9d6e2="" in="SourceAlpha" stdDeviation="1"/><feOffset data-v-7cc9d6e2="" dx="1" dy="2" result="offsetblur"/><feMerge data-v-7cc9d6e2=""><feMergeNode data-v-7cc9d6e2=""/><feMergeNode data-v-7cc9d6e2="" in="SourceGraphic"/></feMerge></filter></defs><g data-v-7cc9d6e2=""><g data-v-7cc9d6e2="" transform="translate(100, 40)"><g data-v-7cc9d6e2="" transform="translate(-34,-13) scale(0.85)"><g data-v-7cc9d6e2="" transform="translate(7, 7.5) scale(0.8)"><path data-v-7cc9d6e2="" fill-rule="evenodd" clip-rule="evenodd" d="M9.5 17.4304H11.5C13.1569 17.4304 14.5 16.0873 14.5 14.4304V6.43042C14.5 4.77357 13.1569 3.43042 11.5 3.43042H9.5C7.84315 3.43042 6.5 4.77357 6.5 6.43042V14.4304C6.5 16.0873 7.84315 17.4304 9.5 17.4304ZM8.5 6.43042C8.5 5.87814 8.94772 5.43042 9.5 5.43042H11.5C12.0523 5.43042 12.5 5.87814 12.5 6.43042V14.4304C12.5 14.9827 12.0523 15.4304 11.5 15.4304H9.5C8.94772 15.4304 8.5 14.9827 8.5 14.4304V6.43042Z" fill="#202529"/><path data-v-7cc9d6e2="" d="M19.3454 20.4304L17.5 19.5304L22.1907 10.4304L17.5 1.33042L19.3454 0.43042L24.5 10.4304L19.3454 20.4304V20.4304Z" fill="#202529"/><rect data-v-7cc9d6e2="" x="0.5" y="0.43042" width="2" height="20" fill="#202529"/></g></g><line data-v-7cc9d6e2="" x1="0" x2="990" y1="0" y2="0" fill="none" stroke="#979797" style="stroke-width: 1.5; stroke-linecap: round;"/></g><g data-v-7cc9d6e2="" transform="translate(100, 80)"><g data-v-7cc9d6e2="" transform="translate(-34,-13) scale(0.85)"><g data-v-7cc9d6e2="" transform="translate(7, 7.5) scale(0.8)"><path data-v-7cc9d6e2="" fill-rule="evenodd" clip-rule="evenodd" d="M9.5 17.4304H11.5C13.1569 17.4304 14.5 16.0873 14.5 14.4304V6.43042C14.5 4.77357 13.1569 3.43042 11.5 3.43042H9.5C7.84315 3.43042 6.5 4.77357 6.5 6.43042V14.4304C6.5 16.0873 7.84315 17.4304 9.5 17.4304ZM8.5 6.43042C8.5 5.87814 8.94772 5.43042 9.5 5.43042H11.5C12.0523 5.43042 12.5 5.87814 12.5 6.43042V14.4304C12.5 14.9827 12.0523 15.4304 11.5 15.4304H9.5C8.94772 15.4304 8.5 14.9827 8.5 14.4304V6.43042Z" fill="#202529"/><path data-v-7cc9d6e2="" d="M19.3454 20.4304L17.5 19.5304L22.1907 10.4304L17.5 1.33042L19.3454 0.43042L24.5 10.4304L19.3454 20.4304V20.4304Z" fill="#202529"/><rect data-v-7cc9d6e2="" x="0.5" y="0.43042" width="2" height="20" fill="#202529"/></g></g><line data-v-7cc9d6e2="" x1="0" x2="990" y1="0" y2="0" fill="none" stroke="#979797" style="stroke-width: 1.5; stroke-linecap: round;"/></g><g data-v-7cc9d6e2="" transform="translate(100, 120)"><g data-v-7cc9d6e2="" transform="translate(-34,-13) scale(0.85)"><g data-v-7cc9d6e2="" transform="translate(7, 7.5) scale(0.8)"><path data-v-7cc9d6e2="" fill-rule="evenodd" clip-rule="evenodd" d="M9.5 17.4304H11.5C13.1569 17.4304 14.5 16.0873 14.5 14.4304V6.43042C14.5 4.77357 13.1569 3.43042 11.5 3.43042H9.5C7.84315 3.43042 6.5 4.77357 6.5 6.43042V14.4304C6.5 16.0873 7.84315 17.4304 9.5 17.4304ZM8.5 6.43042C8.5 5.87814 8.94772 5.43042 9.5 5.43042H11.5C12.0523 5.43042 12.5 5.87814 12.5 6.43042V14.4304C12.5 14.9827 12.0523 15.4304 11.5 15.4304H9.5C8.94772 15.4304 8.5 14.9827 8.5 14.4304V6.43042Z" fill="#202529"/><path data-v-7cc9d6e2="" d="M19.3454 20.4304L17.5 19.5304L22.1907 10.4304L17.5 1.33042L19.3454 0.43042L24.5 10.4304L19.3454 20.4304V20.4304Z" fill="#202529"/><rect data-v-7cc9d6e2="" x="0.5" y="0.43042" width="2" height="20" fill="#202529"/></g></g><line data-v-7cc9d6e2="" x1="0" x2="990" y1="0" y2="0" fill="none" stroke="#979797" style="stroke-width: 1.5; stroke-linecap: round;"/></g><g data-v-7cc9d6e2="" transform="translate(100, 160)"><g data-v-7cc9d6e2="" transform="translate(-34,-13) scale(0.85)"><g data-v-7cc9d6e2="" transform="translate(7, 7.5) scale(0.8)"><path data-v-7cc9d6e2="" fill-rule="evenodd" clip-rule="evenodd" d="M9.5 17.4304H11.5C13.1569 17.4304 14.5 16.0873 14.5 14.4304V6.43042C14.5 4.77357 13.1569 3.43042 11.5 3.43042H9.5C7.84315 3.43042 6.5 4.77357 6.5 6.43042V14.4304C6.5 16.0873 7.84315 17.4304 9.5 17.4304ZM8.5 6.43042C8.5 5.87814 8.94772 5.43042 9.5 5.43042H11.5C12.0523 5.43042 12.5 5.87814 12.5 6.43042V14.4304C12.5 14.9827 12.0523 15.4304 11.5 15.4304H9.5C8.94772 15.4304 8.5 14.9827 8.5 14.4304V6.43042Z" fill="#202529"/><path data-v-7cc9d6e2="" d="M19.3454 20.4304L17.5 19.5304L22.1907 10.4304L17.5 1.33042L19.3454 0.43042L24.5 10.4304L19.3454 20.4304V20.4304Z" fill="#202529"/><rect data-v-7cc9d6e2="" x="0.5" y="0.43042" width="2" height="20" fill="#202529"/></g></g><line data-v-7cc9d6e2="" x1="0" x2="990" y1="0" y2="0" fill="none" stroke="#979797" style="stroke-width: 1.5; stroke-linecap: round;"/></g><g data-v-7cc9d6e2="" transform="translate(100, 200)"><g data-v-7cc9d6e2="" transform="translate(-34,-13) scale(0.85)"><g data-v-7cc9d6e2="" transform="translate(7, 7.5) scale(0.8)"><path data-v-7cc9d6e2="" fill-rule="evenodd" clip-rule="evenodd" d="M9.5 17.4304H11.5C13.1569 17.4304 14.5 16.0873 14.5 14.4304V6.43042C14.5 4.77357 13.1569 3.43042 11.5 3.43042H9.5C7.84315 3.43042 6.5 4.77357 6.5 6.43042V14.4304C6.5 16.0873 7.84315 17.4304 9.5 17.4304ZM8.5 6.43042C8.5 5.87814 8.94772 5.43042 9.5 5.43042H11.5C12.0523 5.43042 12.5 5.87814 12.5 6.43042V14.4304C12.5 14.9827 12.0523 15.4304 11.5 15.4304H9.5C8.94772 15.4304 8.5 14.9827 8.5 14.4304V6.43042Z" fill="#202529"/><path data-v-7cc9d6e2="" d="M19.3454 20.4304L17.5 19.5304L22.1907 10.4304L17.5 1.33042L19.3454 0.43042L24.5 10.4304L19.3454 20.4304V20.4304Z" fill="#202529"/><rect data-v-7cc9d6e2="" x="0.5" y="0.43042" width="2" height="20" fill="#202529"/></g></g><line data-v-7cc9d6e2="" x1="0" x2="990" y1="0" y2="0" fill="none" stroke="#979797" style="stroke-width: 1.5; stroke-linecap: round;"/></g><g data-v-7cc9d6e2="" transform="translate(100, 240)"><g data-v-7cc9d6e2="" transform="translate(-34,-13) scale(0.85)"><g data-v-7cc9d6e2="" transform="translate(7, 7.5) scale(0.8)"><path data-v-7cc9d6e2="" fill-rule="evenodd" clip-rule="evenodd" d="M9.5 17.4304H11.5C13.1569 17.4304 14.5 16.0873 14.5 14.4304V6.43042C14.5 4.77357 13.1569 3.43042 11.5 3.43042H9.5C7.84315 3.43042 6.5 4.77357 6.5 6.43042V14.4304C6.5 16.0873 7.84315 17.4304 9.5 17.4304ZM8.5 6.43042C8.5 5.87814 8.94772 5.43042 9.5 5.43042H11.5C12.0523 5.43042 12.5 5.87814 12.5 6.43042V14.4304C12.5 14.9827 12.0523 15.4304 11.5 15.4304H9.5C8.94772 15.4304 8.5 14.9827 8.5 14.4304V6.43042Z" fill="#202529"/><path data-v-7cc9d6e2="" d="M19.3454 20.4304L17.5 19.5304L22.1907 10.4304L17.5 1.33042L19.3454 0.43042L24.5 10.4304L19.3454 20.4304V20.4304Z" fill="#202529"/><rect data-v-7cc9d6e2="" x="0.5" y="0.43042" width="2" height="20" fill="#202529"/></g></g><line data-v-7cc9d6e2="" x1="0" x2="990" y1="0" y2="0" fill="none" stroke="#979797" style="stroke-width: 1.5; stroke-linecap: round;"/></g></g><g data-v-7cc9d6e2="" transform="translate(100, 290)"><line data-v-7cc9d6e2="" x1="0" x2="990" y1="0" y2="0" fill="none" stroke="#979797" style="stroke-width: 1; stroke-linecap: round;"/></g><g data-v-41a6c0df="" data-v-7cc9d6e2="" style="font-family: &quot;IBM Plex Mono&quot;;"><g data-v-41a6c0df="" class="svgGate"><!----><g><g><line x1="127" y1="40" x2="127" y2="80" style="stroke-width: 4; stroke: rgb(48, 176, 255);"/><circle r="6" cx="127" cy="40" style="fill: rgb(48, 176, 255);"/></g></g><g transform="translate(111,64)"><!----><circle cx="16" cy="16" r="16" fill="#30B0FF"/><!----><!----><path slot="label" transform="translate(16, 16) scale(0.8)" d="M1.1-1.2v-9.4h-2.2v9.4h-8.8v2.4h8.8v9.4h2.2V1.2h8.8v-2.4H1.1z" fill="#002749"/></g><!----></g><g data-v-41a6c0df="" class="svgGate"><!----><g><g><line x1="127" y1="160" x2="127" y2="200" style="stroke-width: 4; stroke: rgb(48, 176, 255);"/><circle r="6" cx="127" cy="160" style="fill: rgb(48, 176, 255);"/></g></g><g transform="translate(111,184)"><!----><circle cx="16" cy="16" r="16" fill="#30B0FF"/><!----><!----><path slot="label" transform="translate(16, 16) scale(0.8)" d="M1.1-1.2v-9.4h-2.2v9.4h-8.8v2.4h8.8v9.4h2.2V1.2h8.8v-2.4H1.1z" fill="#002749"/></g><!----></g><g data-v-41a6c0df="" class="svgGate"><!----><!----><g transform="translate(161,24)"><rect width="32" height="32" style="fill: rgb(0, 125, 121);"/><!----><text dominant-baseline="alphabetical" x="16" y="16" style="font-size: 18px; font-style: normal; fill: rgb(242, 244, 248); font-weight: normal;"><tspan text-anchor="middle">Rx</tspan></text><text x="16" y="28" style="font-size: 7px; font-style: normal; fill: rgb(242, 244, 248); font-weight: bold;"><tspan text-anchor="middle">
          (j,xe)
        </tspan></text><!----></g><!----></g><g data-v-41a6c0df="" class="svgGate"><!----><!----><g transform="translate(161,64)"><rect width="32" height="32" style="fill: rgb(48, 176, 255);"/><!----><text dominant-baseline="alphabetical" x="16" y="22" style="font-size: 19.5px; font-style: normal; fill: rgb(0, 39, 73); font-weight: normal;"><tspan text-anchor="middle">H</tspan></text><text x="16" y="28" style="font-size: 8.5px; font-style: normal; fill: rgb(0, 39, 73); font-weight: bold;"><!----></text><!----></g><!----></g><g data-v-41a6c0df="" class="svgGate"><!----><!----><g transform="translate(161,144)"><rect width="32" height="32" style="fill: rgb(0, 125, 121);"/><!----><text dominant-baseline="alphabetical" x="16" y="16" style="font-size: 18px; font-style: normal; fill: rgb(242, 244, 248); font-weight: normal;"><tspan text-anchor="middle">Rx</tspan></text><text x="16" y="28" style="font-size: 7px; font-style: normal; fill: rgb(242, 244, 248); font-weight: bold;"><tspan text-anchor="middle">
          (j,xe)
        </tspan></text><!----></g><!----></g><g data-v-41a6c0df="" class="svgGate"><!----><!----><g transform="translate(161,184)"><rect width="32" height="32" style="fill: rgb(48, 176, 255);"/><!----><text dominant-baseline="alphabetical" x="16" y="22" style="font-size: 19.5px; font-style: normal; fill: rgb(0, 39, 73); font-weight: normal;"><tspan text-anchor="middle">H</tspan></text><text x="16" y="28" style="font-size: 8.5px; font-style: normal; fill: rgb(0, 39, 73); font-weight: bold;"><!----></text><!----></g><!----></g><g data-v-41a6c0df="" class="svgGate"><!----><g><g><line x1="227" y1="80" x2="227" y2="40" style="stroke-width: 4; stroke: rgb(48, 176, 255);"/><circle r="6" cx="227" cy="80" style="fill: rgb(48, 176, 255);"/></g></g><g transform="translate(211,24)"><!----><circle cx="16" cy="16" r="16" fill="#30B0FF"/><!----><!----><path slot="label" transform="translate(16, 16) scale(0.8)" d="M1.1-1.2v-9.4h-2.2v9.4h-8.8v2.4h8.8v9.4h2.2V1.2h8.8v-2.4H1.1z" fill="#002749"/></g><!----></g><g data-v-41a6c0df="" class="svgGate"><!----><g><g><line x1="227" y1="200" x2="227" y2="160" style="stroke-width: 4; stroke: rgb(48, 176, 255);"/><circle r="6" cx="227" cy="200" style="fill: rgb(48, 176, 255);"/></g></g><g transform="translate(211,144)"><!----><circle cx="16" cy="16" r="16" fill="#30B0FF"/><!----><!----><path slot="label" transform="translate(16, 16) scale(0.8)" d="M1.1-1.2v-9.4h-2.2v9.4h-8.8v2.4h8.8v9.4h2.2V1.2h8.8v-2.4H1.1z" fill="#002749"/></g><!----></g><g data-v-41a6c0df="" class="svgGate"><!----><!----><g transform="translate(261,64)"><rect width="32" height="32" style="fill: rgb(0, 125, 121);"/><!----><text dominant-baseline="alphabetical" x="16" y="16" style="font-size: 18px; font-style: normal; fill: rgb(242, 244, 248); font-weight: normal;"><tspan text-anchor="middle">Rx</tspan></text><text x="16" y="28" style="font-size: 7px; font-style: normal; fill: rgb(242, 244, 248); font-weight: bold;"><tspan text-anchor="middle">
          (-j,ye)
        </tspan></text><!----></g><!----></g><g data-v-41a6c0df="" class="svgGate"><!----><!----><g transform="translate(261,184)"><rect width="32" height="32" style="fill: rgb(0, 125, 121);"/><!----><text dominant-baseline="alphabetical" x="16" y="16" style="font-size: 18px; font-style: normal; fill: rgb(242, 244, 248); font-weight: normal;"><tspan text-anchor="middle">Rx</tspan></text><text x="16" y="28" style="font-size: 7px; font-style: normal; fill: rgb(242, 244, 248); font-weight: bold;"><tspan text-anchor="middle">
          (-j,ye)
        </tspan></text><!----></g><!----></g><g data-v-41a6c0df="" class="svgGate"><!----><g><g><line x1="327" y1="80" x2="327" y2="40" style="stroke-width: 4; stroke: rgb(48, 176, 255);"/><circle r="6" cx="327" cy="80" style="fill: rgb(48, 176, 255);"/></g></g><g transform="translate(311,24)"><!----><circle cx="16" cy="16" r="16" fill="#30B0FF"/><!----><!----><path slot="label" transform="translate(16, 16) scale(0.8)" d="M1.1-1.2v-9.4h-2.2v9.4h-8.8v2.4h8.8v9.4h2.2V1.2h8.8v-2.4H1.1z" fill="#002749"/></g><!----></g><g data-v-41a6c0df="" class="svgGate"><!----><g><g><line x1="327" y1="200" x2="327" y2="160" style="stroke-width: 4; stroke: rgb(48, 176, 255);"/><circle r="6" cx="327" cy="200" style="fill: rgb(48, 176, 255);"/></g></g><g transform="translate(311,144)"><!----><circle cx="16" cy="16" r="16" fill="#30B0FF"/><!----><!----><path slot="label" transform="translate(16, 16) scale(0.8)" d="M1.1-1.2v-9.4h-2.2v9.4h-8.8v2.4h8.8v9.4h2.2V1.2h8.8v-2.4H1.1z" fill="#002749"/></g><!----></g><g data-v-41a6c0df="" class="svgGate"><!----><!----><g transform="translate(361,64)"><rect width="32" height="32" style="fill: rgb(48, 176, 255);"/><!----><text dominant-baseline="alphabetical" x="16" y="22" style="font-size: 19.5px; font-style: normal; fill: rgb(0, 39, 73); font-weight: normal;"><tspan text-anchor="middle">H</tspan></text><text x="16" y="28" style="font-size: 8.5px; font-style: normal; fill: rgb(0, 39, 73); font-weight: bold;"><!----></text><!----></g><!----></g><g data-v-41a6c0df="" class="svgGate"><!----><!----><g transform="translate(361,184)"><rect width="32" height="32" style="fill: rgb(48, 176, 255);"/><!----><text dominant-baseline="alphabetical" x="16" y="22" style="font-size: 19.5px; font-style: normal; fill: rgb(0, 39, 73); font-weight: normal;"><tspan text-anchor="middle">H</tspan></text><text x="16" y="28" style="font-size: 8.5px; font-style: normal; fill: rgb(0, 39, 73); font-weight: bold;"><!----></text><!----></g><!----></g><g data-v-41a6c0df="" class="svgGate"><!----><g><g><line x1="427" y1="40" x2="427" y2="80" style="stroke-width: 4; stroke: rgb(48, 176, 255);"/><circle r="6" cx="427" cy="40" style="fill: rgb(48, 176, 255);"/></g></g><g transform="translate(411,64)"><!----><circle cx="16" cy="16" r="16" fill="#30B0FF"/><!----><!----><path slot="label" transform="translate(16, 16) scale(0.8)" d="M1.1-1.2v-9.4h-2.2v9.4h-8.8v2.4h8.8v9.4h2.2V1.2h8.8v-2.4H1.1z" fill="#002749"/></g><!----></g><g data-v-41a6c0df="" class="svgGate"><!----><g><g><line x1="427" y1="160" x2="427" y2="200" style="stroke-width: 4; stroke: rgb(48, 176, 255);"/><circle r="6" cx="427" cy="160" style="fill: rgb(48, 176, 255);"/></g></g><g transform="translate(411,184)"><!----><circle cx="16" cy="16" r="16" fill="#30B0FF"/><!----><!----><path slot="label" transform="translate(16, 16) scale(0.8)" d="M1.1-1.2v-9.4h-2.2v9.4h-8.8v2.4h8.8v9.4h2.2V1.2h8.8v-2.4H1.1z" fill="#002749"/></g><!----></g><g data-v-41a6c0df="" class="svgGate"><!----><g><g><line x1="477" y1="80" x2="477" y2="120" style="stroke-width: 4; stroke: rgb(48, 176, 255);"/><circle r="6" cx="477" cy="80" style="fill: rgb(48, 176, 255);"/></g></g><g transform="translate(461,104)"><!----><circle cx="16" cy="16" r="16" fill="#30B0FF"/><!----><!----><path slot="label" transform="translate(16, 16) scale(0.8)" d="M1.1-1.2v-9.4h-2.2v9.4h-8.8v2.4h8.8v9.4h2.2V1.2h8.8v-2.4H1.1z" fill="#002749"/></g><!----></g><g data-v-41a6c0df="" class="svgGate"><!----><g><g><line x1="477" y1="200" x2="477" y2="240" style="stroke-width: 4; stroke: rgb(48, 176, 255);"/><circle r="6" cx="477" cy="200" style="fill: rgb(48, 176, 255);"/></g></g><g transform="translate(461,224)"><!----><circle cx="16" cy="16" r="16" fill="#30B0FF"/><!----><!----><path slot="label" transform="translate(16, 16) scale(0.8)" d="M1.1-1.2v-9.4h-2.2v9.4h-8.8v2.4h8.8v9.4h2.2V1.2h8.8v-2.4H1.1z" fill="#002749"/></g><!----></g><g data-v-41a6c0df="" class="svgGate"><!----><!----><g transform="translate(511,64)"><rect width="32" height="32" style="fill: rgb(0, 125, 121);"/><!----><text dominant-baseline="alphabetical" x="16" y="16" style="font-size: 18px; font-style: normal; fill: rgb(242, 244, 248); font-weight: normal;"><tspan text-anchor="middle">Rx</tspan></text><text x="16" y="28" style="font-size: 7px; font-style: normal; fill: rgb(242, 244, 248); font-weight: bold;"><tspan text-anchor="middle">
          (j,xo)
        </tspan></text><!----></g><!----></g><g data-v-41a6c0df="" class="svgGate"><!----><!----><g transform="translate(511,104)"><rect width="32" height="32" style="fill: rgb(48, 176, 255);"/><!----><text dominant-baseline="alphabetical" x="16" y="22" style="font-size: 19.5px; font-style: normal; fill: rgb(0, 39, 73); font-weight: normal;"><tspan text-anchor="middle">H</tspan></text><text x="16" y="28" style="font-size: 8.5px; font-style: normal; fill: rgb(0, 39, 73); font-weight: bold;"><!----></text><!----></g><!----></g><g data-v-41a6c0df="" class="svgGate"><!----><!----><g transform="translate(511,184)"><rect width="32" height="32" style="fill: rgb(0, 125, 121);"/><!----><text dominant-baseline="alphabetical" x="16" y="16" style="font-size: 18px; font-style: normal; fill: rgb(242, 244, 248); font-weight: normal;"><tspan text-anchor="middle">Rx</tspan></text><text x="16" y="28" style="font-size: 7px; font-style: normal; fill: rgb(242, 244, 248); font-weight: bold;"><tspan text-anchor="middle">
          (j,xo)
        </tspan></text><!----></g><!----></g><g data-v-41a6c0df="" class="svgGate"><!----><!----><g transform="translate(511,224)"><rect width="32" height="32" style="fill: rgb(48, 176, 255);"/><!----><text dominant-baseline="alphabetical" x="16" y="22" style="font-size: 19.5px; font-style: normal; fill: rgb(0, 39, 73); font-weight: normal;"><tspan text-anchor="middle">H</tspan></text><text x="16" y="28" style="font-size: 8.5px; font-style: normal; fill: rgb(0, 39, 73); font-weight: bold;"><!----></text><!----></g><!----></g><g data-v-41a6c0df="" class="svgGate"><!----><g><g><line x1="577" y1="120" x2="577" y2="80" style="stroke-width: 4; stroke: rgb(48, 176, 255);"/><circle r="6" cx="577" cy="120" style="fill: rgb(48, 176, 255);"/></g></g><g transform="translate(561,64)"><!----><circle cx="16" cy="16" r="16" fill="#30B0FF"/><!----><!----><path slot="label" transform="translate(16, 16) scale(0.8)" d="M1.1-1.2v-9.4h-2.2v9.4h-8.8v2.4h8.8v9.4h2.2V1.2h8.8v-2.4H1.1z" fill="#002749"/></g><!----></g><g data-v-41a6c0df="" class="svgGate"><!----><g><g><line x1="577" y1="240" x2="577" y2="200" style="stroke-width: 4; stroke: rgb(48, 176, 255);"/><circle r="6" cx="577" cy="240" style="fill: rgb(48, 176, 255);"/></g></g><g transform="translate(561,184)"><!----><circle cx="16" cy="16" r="16" fill="#30B0FF"/><!----><!----><path slot="label" transform="translate(16, 16) scale(0.8)" d="M1.1-1.2v-9.4h-2.2v9.4h-8.8v2.4h8.8v9.4h2.2V1.2h8.8v-2.4H1.1z" fill="#002749"/></g><!----></g><g data-v-41a6c0df="" class="svgGate"><!----><!----><g transform="translate(611,104)"><rect width="32" height="32" style="fill: rgb(0, 125, 121);"/><!----><text dominant-baseline="alphabetical" x="16" y="16" style="font-size: 18px; font-style: normal; fill: rgb(242, 244, 248); font-weight: normal;"><tspan text-anchor="middle">Rx</tspan></text><text x="16" y="28" style="font-size: 7px; font-style: normal; fill: rgb(242, 244, 248); font-weight: bold;"><tspan text-anchor="middle">
          (-j,yo)
        </tspan></text><!----></g><!----></g><g data-v-41a6c0df="" class="svgGate"><!----><!----><g transform="translate(611,224)"><rect width="32" height="32" style="fill: rgb(0, 125, 121);"/><!----><text dominant-baseline="alphabetical" x="16" y="16" style="font-size: 18px; font-style: normal; fill: rgb(242, 244, 248); font-weight: normal;"><tspan text-anchor="middle">Rx</tspan></text><text x="16" y="28" style="font-size: 7px; font-style: normal; fill: rgb(242, 244, 248); font-weight: bold;"><tspan text-anchor="middle">
          (-j,yo)
        </tspan></text><!----></g><!----></g><g data-v-41a6c0df="" class="svgGate"><!----><g><g><line x1="677" y1="120" x2="677" y2="80" style="stroke-width: 4; stroke: rgb(48, 176, 255);"/><circle r="6" cx="677" cy="120" style="fill: rgb(48, 176, 255);"/></g></g><g transform="translate(661,64)"><!----><circle cx="16" cy="16" r="16" fill="#30B0FF"/><!----><!----><path slot="label" transform="translate(16, 16) scale(0.8)" d="M1.1-1.2v-9.4h-2.2v9.4h-8.8v2.4h8.8v9.4h2.2V1.2h8.8v-2.4H1.1z" fill="#002749"/></g><!----></g><g data-v-41a6c0df="" class="svgGate"><!----><g><g><line x1="677" y1="240" x2="677" y2="200" style="stroke-width: 4; stroke: rgb(48, 176, 255);"/><circle r="6" cx="677" cy="240" style="fill: rgb(48, 176, 255);"/></g></g><g transform="translate(661,184)"><!----><circle cx="16" cy="16" r="16" fill="#30B0FF"/><!----><!----><path slot="label" transform="translate(16, 16) scale(0.8)" d="M1.1-1.2v-9.4h-2.2v9.4h-8.8v2.4h8.8v9.4h2.2V1.2h8.8v-2.4H1.1z" fill="#002749"/></g><!----></g><g data-v-41a6c0df="" class="svgGate"><!----><!----><g transform="translate(711,104)"><rect width="32" height="32" style="fill: rgb(48, 176, 255);"/><!----><text dominant-baseline="alphabetical" x="16" y="22" style="font-size: 19.5px; font-style: normal; fill: rgb(0, 39, 73); font-weight: normal;"><tspan text-anchor="middle">H</tspan></text><text x="16" y="28" style="font-size: 8.5px; font-style: normal; fill: rgb(0, 39, 73); font-weight: bold;"><!----></text><!----></g><!----></g><g data-v-41a6c0df="" class="svgGate"><!----><!----><g transform="translate(711,224)"><rect width="32" height="32" style="fill: rgb(48, 176, 255);"/><!----><text dominant-baseline="alphabetical" x="16" y="22" style="font-size: 19.5px; font-style: normal; fill: rgb(0, 39, 73); font-weight: normal;"><tspan text-anchor="middle">H</tspan></text><text x="16" y="28" style="font-size: 8.5px; font-style: normal; fill: rgb(0, 39, 73); font-weight: bold;"><!----></text><!----></g><!----></g><g data-v-41a6c0df="" class="svgGate"><!----><g><g><line x1="777" y1="80" x2="777" y2="120" style="stroke-width: 4; stroke: rgb(48, 176, 255);"/><circle r="6" cx="777" cy="80" style="fill: rgb(48, 176, 255);"/></g></g><g transform="translate(761,104)"><!----><circle cx="16" cy="16" r="16" fill="#30B0FF"/><!----><!----><path slot="label" transform="translate(16, 16) scale(0.8)" d="M1.1-1.2v-9.4h-2.2v9.4h-8.8v2.4h8.8v9.4h2.2V1.2h8.8v-2.4H1.1z" fill="#002749"/></g><!----></g><g data-v-41a6c0df="" class="svgGate"><!----><g><g><line x1="777" y1="200" x2="777" y2="240" style="stroke-width: 4; stroke: rgb(48, 176, 255);"/><circle r="6" cx="777" cy="200" style="fill: rgb(48, 176, 255);"/></g></g><g transform="translate(761,224)"><!----><circle cx="16" cy="16" r="16" fill="#30B0FF"/><!----><!----><path slot="label" transform="translate(16, 16) scale(0.8)" d="M1.1-1.2v-9.4h-2.2v9.4h-8.8v2.4h8.8v9.4h2.2V1.2h8.8v-2.4H1.1z" fill="#002749"/></g><!----></g><g data-v-41a6c0df="" class="svgGate"><!----><g><g><line x1="827" y1="40" x2="827" y2="160" style="stroke-width: 4; stroke: rgb(146, 76, 252);"/><circle r="6" cx="827" cy="40" style="fill: rgb(146, 76, 252);"/></g></g><g transform="translate(811,144)"><rect width="32" height="32" style="fill: rgb(146, 76, 252);"/><!----><text dominant-baseline="alphabetical" x="16" y="16" style="font-size: 16.5px; font-style: normal; fill: rgb(242, 244, 248); font-weight: normal;"><tspan text-anchor="middle">cRz</tspan></text><text x="16" y="28" style="font-size: 5.5px; font-style: normal; fill: rgb(242, 244, 248); font-weight: bold;"><tspan text-anchor="middle">
          (jz)
        </tspan></text><!----></g><!----></g><g data-v-41a6c0df="" class="svgGate"><!----><g><g><line x1="877" y1="80" x2="877" y2="200" style="stroke-width: 4; stroke: rgb(146, 76, 252);"/><circle r="6" cx="877" cy="80" style="fill: rgb(146, 76, 252);"/></g></g><g transform="translate(861,184)"><rect width="32" height="32" style="fill: rgb(146, 76, 252);"/><!----><text dominant-baseline="alphabetical" x="16" y="16" style="font-size: 16.5px; font-style: normal; fill: rgb(242, 244, 248); font-weight: normal;"><tspan text-anchor="middle">cRz</tspan></text><text x="16" y="28" style="font-size: 5.5px; font-style: normal; fill: rgb(242, 244, 248); font-weight: bold;"><tspan text-anchor="middle">
          (jz)
        </tspan></text><!----></g><!----></g><g data-v-41a6c0df="" class="svgGate"><!----><g><g><line x1="927" y1="120" x2="927" y2="240" style="stroke-width: 4; stroke: rgb(146, 76, 252);"/><circle r="6" cx="927" cy="120" style="fill: rgb(146, 76, 252);"/></g></g><g transform="translate(911,224)"><rect width="32" height="32" style="fill: rgb(146, 76, 252);"/><!----><text dominant-baseline="alphabetical" x="16" y="16" style="font-size: 16.5px; font-style: normal; fill: rgb(242, 244, 248); font-weight: normal;"><tspan text-anchor="middle">cRz</tspan></text><text x="16" y="28" style="font-size: 5.5px; font-style: normal; fill: rgb(242, 244, 248); font-weight: bold;"><tspan text-anchor="middle">
          (jz)
        </tspan></text><!----></g><!----></g></g><g data-v-7cc9d6e2="" transform="translate(-5 0)" class="fixedLabels"><rect data-v-7cc9d6e2="" x="0" y="0" width="70" height="330" style="fill: white;"/><g data-v-7cc9d6e2=""><g data-v-7cc9d6e2="" transform="translate(&#10;              65,&#10;              45&#10;            )" class="registerLabel"><!----><text data-v-7cc9d6e2="" text-anchor="end" font-family="'IBM Plex Mono'" font-size="14px" font-weight="bold" fill="#565656" class="small">
            q[0]
          </text><!----></g><g data-v-7cc9d6e2="" transform="translate(&#10;              65,&#10;              85&#10;            )" class="registerLabel"><!----><text data-v-7cc9d6e2="" text-anchor="end" font-family="'IBM Plex Mono'" font-size="14px" font-weight="bold" fill="#565656" class="small">
            q[1]
          </text><!----></g><g data-v-7cc9d6e2="" transform="translate(&#10;              65,&#10;              125&#10;            )" class="registerLabel"><!----><text data-v-7cc9d6e2="" text-anchor="end" font-family="'IBM Plex Mono'" font-size="14px" font-weight="bold" fill="#565656" class="small">
            q[2]
          </text><!----></g><g data-v-7cc9d6e2="" transform="translate(&#10;              65,&#10;              165&#10;            )" class="registerLabel"><!----><text data-v-7cc9d6e2="" text-anchor="end" font-family="'IBM Plex Mono'" font-size="14px" font-weight="bold" fill="#565656" class="small">
            q[3]
          </text><!----></g><g data-v-7cc9d6e2="" transform="translate(&#10;              65,&#10;              205&#10;            )" class="registerLabel"><!----><text data-v-7cc9d6e2="" text-anchor="end" font-family="'IBM Plex Mono'" font-size="14px" font-weight="bold" fill="#565656" class="small">
            q[4]
          </text><!----></g><g data-v-7cc9d6e2="" transform="translate(&#10;              65,&#10;              245&#10;            )" class="registerLabel"><!----><text data-v-7cc9d6e2="" text-anchor="end" font-family="'IBM Plex Mono'" font-size="14px" font-weight="bold" fill="#565656" class="small">
            q[5]
          </text><!----></g><!----></g></g><g data-v-7cc9d6e2=""><g data-v-7cc9d6e2=""><text data-v-7cc9d6e2="" x="65" y="295" text-anchor="end" font-family="'IBM Plex Mono'" font-size="14px" font-weight="bold" fill="#565656" class="small">
          c5
        </text></g></g></svg>